<svg width="30" height="30" viewBox="0 0 30 30" fill="none" xmlns="http://www.w3.org/2000/svg">
<rect width="30" height="30" fill="#F9FAFB"/>
<path d="M22.3574 6.83142L22.4074 6.99142L22.9594 8.91342C23.0094 9.08765 22.9946 9.27409 22.9178 9.43826C22.8409 9.60243 22.7072 9.73321 22.5414 9.80642L22.4454 9.84142L11.7184 12.9164H22.8774C23.059 12.9165 23.2343 12.9824 23.3709 13.1019C23.5076 13.2215 23.5962 13.3865 23.6204 13.5664L23.6274 13.6664V22.1654C23.6274 22.8659 23.3602 23.5399 22.8802 24.05C22.4002 24.5602 21.7436 24.8679 21.0444 24.9104L20.8774 24.9154H8.37842C7.67813 24.9155 7.00421 24.6483 6.49412 24.1685C5.98403 23.6887 5.6762 23.0324 5.63342 22.3334L5.62842 22.1654V13.7734L5.10642 11.9524C4.9135 11.2792 4.98466 10.5578 5.3054 9.9353C5.62613 9.31278 6.17227 8.83608 6.83242 8.60242L6.99242 8.55042L19.0064 5.10642C19.6796 4.9135 20.401 4.98466 21.0235 5.3054C21.6461 5.62613 22.1228 6.17227 22.3564 6.83242L22.3574 6.83142ZM8.90142 9.56342L7.40542 9.99342C7.1083 10.0787 6.8533 10.271 6.68968 10.5332C6.52605 10.7955 6.46539 11.1091 6.51942 11.4134L6.54842 11.5384L6.89242 12.7394L7.18742 12.6544L8.90142 9.56442V9.56342ZM13.6574 8.20042L10.9404 8.97942L9.22642 12.0694L11.9444 11.2914L13.6574 8.20042V8.20042ZM18.4144 6.83542L15.6974 7.61542L13.9834 10.7054L16.7004 9.92742L18.4144 6.83542V6.83542ZM20.2624 6.60242L18.7414 9.34242L21.3094 8.60542L20.9664 7.40542C20.9158 7.22782 20.8264 7.06368 20.7046 6.92481C20.5829 6.78595 20.4319 6.67584 20.2624 6.60242V6.60242Z" fill="#1F2937"/>
<path d="M17.8068 18.3636C17.6818 16.9205 16.625 16.1023 15.1591 16.1023C13.5909 16.1023 12.3523 17.1477 12.3523 19.0909C12.3523 21.0256 13.5568 22.0795 15.1591 22.0795C16.8636 22.0795 17.7273 20.8977 17.8068 19.9091L16.2046 19.8977C16.125 20.3949 15.7727 20.7045 15.1932 20.7045C14.4233 20.7045 13.9773 20.1591 13.9773 19.0909C13.9773 18.0795 14.4091 17.4773 15.2046 17.4773C15.8125 17.4773 16.1591 17.8352 16.2046 18.3636H17.8068Z" fill="#F9FAFB"/>
</svg>
